<?xml version="1.0" encoding="utf-8"?>
<!-- Generator: Adobe Illustrator 16.0.0, SVG Export Plug-In . SVG Version: 6.00 Build 0)  -->
<!DOCTYPE svg PUBLIC "-//W3C//DTD SVG 1.1//EN" "http://www.w3.org/Graphics/SVG/1.1/DTD/svg11.dtd">
<svg version="1.1" id="Layer_1" xmlns="http://www.w3.org/2000/svg" xmlns:xlink="http://www.w3.org/1999/xlink" x="0px" y="0px"
	 width="55px" height="55px" viewBox="0 0 55 55" enable-background="new 0 0 55 55" xml:space="preserve">
<path d="M42.707,2.712H12.293c-5.283,0-9.581,4.297-9.581,9.58v10.119v20.295c0,5.283,4.298,9.58,9.581,9.58h30.414
	c5.283,0,9.581-4.297,9.581-9.58V22.412V12.292C52.288,7.009,47.99,2.712,42.707,2.712z M45.455,8.426l1.096-0.004v1.091v7.312
	l-8.375,0.027L38.147,8.45L45.455,8.426z M20.425,22.412c1.587-2.197,4.163-3.638,7.075-3.638s5.488,1.44,7.075,3.638
	c1.033,1.435,1.651,3.188,1.651,5.089c0,4.81-3.917,8.724-8.727,8.724c-4.812,0-8.726-3.914-8.726-8.724
	C18.774,25.6,19.392,23.846,20.425,22.412z M47.458,42.707c0,2.621-2.131,4.75-4.751,4.75H12.293c-2.62,0-4.751-2.129-4.751-4.75
	V22.412h7.4c-0.639,1.572-0.998,3.289-0.998,5.089c0,7.472,6.08,13.556,13.556,13.556S41.056,34.973,41.056,27.5
	c0-1.8-0.361-3.517-1-5.089h7.402V42.707z"/>
</svg>
