<?xml version="1.0" encoding="utf-8"?>
<!-- Generator: Adobe Illustrator 16.0.0, SVG Export Plug-In . SVG Version: 6.00 Build 0)  -->
<!DOCTYPE svg PUBLIC "-//W3C//DTD SVG 1.1//EN" "http://www.w3.org/Graphics/SVG/1.1/DTD/svg11.dtd">
<svg version="1.1" id="Layer_1" xmlns="http://www.w3.org/2000/svg" xmlns:xlink="http://www.w3.org/1999/xlink" x="0px" y="0px"
	 width="55px" height="55px" viewBox="0 0 55 55" enable-background="new 0 0 55 55" xml:space="preserve">
<path d="M28.667,2.608c-13.586,0-20.437,9.74-20.437,17.863c0,4.918,1.862,9.293,5.855,10.923c0.655,0.269,1.242,0.01,1.432-0.715
	c0.132-0.501,0.445-1.767,0.584-2.296c0.191-0.716,0.117-0.967-0.412-1.593c-1.151-1.357-1.888-3.116-1.888-5.608
	c0-7.226,5.407-13.694,14.078-13.694c7.68,0,11.898,4.692,11.898,10.957c0,8.245-3.648,15.205-9.065,15.205
	c-2.991,0-5.23-2.474-4.513-5.509c0.859-3.622,2.523-7.531,2.523-10.147c0-2.34-1.256-4.292-3.855-4.292
	c-3.058,0-5.515,3.164-5.515,7.401c0,2.699,0.912,4.525,0.912,4.525s-3.129,13.259-3.678,15.582
	c-1.092,4.625-0.164,10.293-0.085,10.865c0.046,0.34,0.482,0.421,0.68,0.165c0.281-0.368,3.924-4.865,5.162-9.358
	c0.351-1.272,2.011-7.86,2.011-7.86c0.994,1.896,3.897,3.563,6.985,3.563c9.192,0,15.429-8.379,15.429-19.596
	C46.77,10.508,39.586,2.608,28.667,2.608z"/>
</svg>
