<?xml version="1.0" encoding="utf-8"?>
<!-- Generator: Adobe Illustrator 16.0.0, SVG Export Plug-In . SVG Version: 6.00 Build 0)  -->
<!DOCTYPE svg PUBLIC "-//W3C//DTD SVG 1.1//EN" "http://www.w3.org/Graphics/SVG/1.1/DTD/svg11.dtd">
<svg version="1.1" id="Layer_1" xmlns="http://www.w3.org/2000/svg" xmlns:xlink="http://www.w3.org/1999/xlink" x="0px" y="0px"
	 width="55px" height="55px" viewBox="0 0 55 55" enable-background="new 0 0 55 55" xml:space="preserve">
<path d="M52.132,12.221c-1.812,0.805-3.76,1.348-5.805,1.592c2.087-1.25,3.689-3.23,4.443-5.592c-1.953,1.158-4.115,2-6.418,2.453
	c-1.843-1.964-4.47-3.191-7.377-3.191c-5.581,0-10.106,4.525-10.106,10.106c0,0.792,0.089,1.563,0.262,2.303
	c-8.4-0.421-15.848-4.444-20.833-10.56c-0.869,1.492-1.368,3.229-1.368,5.081c0,3.507,1.784,6.6,4.496,8.413
	c-1.656-0.054-3.215-0.508-4.577-1.265c-0.001,0.042-0.001,0.084-0.001,0.128c0,4.896,3.483,8.98,8.107,9.91
	c-0.848,0.23-1.741,0.354-2.663,0.354c-0.651,0-1.284-0.062-1.901-0.182c1.286,4.016,5.019,6.938,9.44,7.02
	c-3.459,2.711-7.816,4.326-12.552,4.326c-0.815,0-1.62-0.048-2.411-0.141c4.474,2.868,9.786,4.541,15.493,4.541
	c18.591,0,28.757-15.4,28.757-28.757c0-0.438-0.01-0.874-0.029-1.308C49.063,16.028,50.778,14.248,52.132,12.221z"/>
</svg>
