<?xml version="1.0" encoding="utf-8"?>
<!-- Generator: Adobe Illustrator 16.0.0, SVG Export Plug-In . SVG Version: 6.00 Build 0)  -->
<!DOCTYPE svg PUBLIC "-//W3C//DTD SVG 1.1//EN" "http://www.w3.org/Graphics/SVG/1.1/DTD/svg11.dtd">
<svg version="1.1" id="Layer_1" xmlns="http://www.w3.org/2000/svg" xmlns:xlink="http://www.w3.org/1999/xlink" x="0px" y="0px"
	 width="55px" height="55px" viewBox="0 0 55 55" enable-background="new 0 0 55 55" xml:space="preserve">
<g>
	<path d="M53.559,33.131V52.4H42.387V34.423c0-4.515-1.613-7.597-5.656-7.597c-3.088,0-4.924,2.076-5.732,4.085
		c-0.293,0.718-0.369,1.717-0.369,2.723V52.4H19.453c0,0,0.15-30.45,0-33.602h11.176v4.761c-0.023,0.037-0.055,0.074-0.074,0.11
		h0.074v-0.11c1.482-2.284,4.133-5.551,10.068-5.551C48.047,18.009,53.559,22.811,53.559,33.131L53.559,33.131z M7.764,2.6
		c-3.822,0-6.322,2.508-6.322,5.805c0,3.226,2.429,5.808,6.175,5.808h0.074c3.897,0,6.319-2.582,6.319-5.808
		C13.938,5.107,11.588,2.6,7.764,2.6L7.764,2.6z M2.106,52.4h11.169V18.798H2.106V52.4z M2.106,52.4"/>
</g>
</svg>
